<svg width="374" height="39" viewBox="0 0 374 39" fill="none" xmlns="http://www.w3.org/2000/svg">
<path d="M145.877 13.0162H143.951L148.513 20.1968L143.951 27.3773H145.877L149.579 21.4496L153.282 27.3773H155.217L150.598 20.1968L155.217 13.0162H153.282L149.579 19.1403L145.877 13.0162Z" fill="#00ADEE"/>
<path d="M119.776 11.3043C118.573 8.17757 115.687 6.01294 112.32 6.01294C110.155 6.01294 107.991 6.975 106.548 8.41808C105.104 6.975 102.94 6.01294 100.775 6.01294C98.8511 6.01294 96.927 6.73448 95.4839 7.93706V7.21551C95.2434 6.73448 94.7624 6.25345 94.0408 6.25345H88.7495C88.028 6.25345 87.5469 6.73448 87.5469 7.45603V36.5583C87.5469 37.2798 88.028 37.7609 88.7495 37.7609H94.0408C94.5219 37.7609 95.2434 37.2798 95.2434 36.7988V15.874V15.6335C95.2434 14.6715 95.9649 13.9499 97.1675 13.9499H98.1296C98.6106 13.9499 98.8511 14.1904 99.3322 14.4309C99.8132 14.912 100.054 15.393 100.054 16.1146V36.7988C100.054 37.5203 100.535 38.0014 101.256 38.0014H106.548C107.269 38.0014 107.75 37.5203 107.75 36.7988V15.874C107.75 15.1525 107.991 14.6715 108.712 14.1904C108.953 13.9499 109.434 13.9499 109.674 13.9499H110.636C111.839 13.9499 112.56 14.912 112.56 15.874V36.5583C112.56 37.2798 113.041 37.7609 113.763 37.7609H119.054C119.776 37.7609 120.257 37.2798 120.257 36.5583V14.1904C120.257 12.7473 120.016 12.0258 119.776 11.3043Z" fill="#00BDF2"/>
<path d="M83.4582 6.25338H80.3315V1.20257C80.3315 0.721543 79.8505 0 79.3695 0H79.1289C75.7617 0.962058 76.4833 5.53183 70.2299 6.01286H69.5084H69.2678C68.7868 6.01286 68.3058 6.49389 68.3058 7.21543V12.5068C68.3058 13.2283 68.7868 13.7093 69.5084 13.7093H72.635V36.3177C72.635 37.0392 73.1161 37.5203 73.8376 37.5203H79.1289C79.8505 37.5203 80.3315 37.0392 80.3315 36.3177V13.7093H83.2177C83.9392 13.7093 84.4203 13.2283 84.4203 12.5068V7.45595C84.6608 6.73441 84.1797 6.25338 83.4582 6.25338Z" fill="#00BDF2"/>
<path d="M64.2171 6.25366H58.9258C58.2042 6.25366 57.7232 6.73469 57.7232 7.45623V18.5199C57.7232 19.2414 57.2422 19.7225 56.5206 19.7225H54.356C53.6344 19.7225 53.1534 19.2414 53.1534 18.5199V7.45623C53.1534 6.73469 52.6724 6.25366 51.9508 6.25366H46.6595C45.938 6.25366 45.4569 6.73469 45.4569 7.45623V19.482C45.4569 24.0517 48.8241 27.4189 53.3939 27.4189C53.3939 27.4189 56.7611 27.4189 57.0016 27.4189C57.7232 27.4189 58.2042 27.9 58.2042 28.6215C58.2042 29.3431 57.7232 29.8241 57.0016 29.8241H49.0647C48.3431 29.8241 47.8621 30.3051 47.8621 31.0267V36.318C47.8621 37.0395 48.3431 37.5205 49.0647 37.5205H57.7232C62.293 37.5205 65.6602 34.1533 65.6602 29.5836V7.21572C65.4197 6.73469 64.9386 6.25366 64.2171 6.25366Z" fill="#20346C"/>
<path d="M12.7473 6.25366H1.20257C0.481029 6.25366 0 6.73469 0 7.45623V12.7476V36.5585C0 37.28 0.481029 37.7611 1.20257 37.7611H6.73441C7.45595 37.7611 7.93698 37.28 7.93698 36.5585V28.381H12.9878C17.317 28.381 20.2032 25.4948 20.2032 21.1656V13.4691C20.2032 9.38035 17.0765 6.25366 12.7473 6.25366ZM12.5068 16.1148V19.482C12.5068 20.2035 12.0257 20.6845 11.3042 20.6845H7.93698V13.9501H11.0637C11.7852 13.9501 12.2662 14.4312 12.2662 15.1527V16.1148H12.5068Z" fill="#20346C"/>
<path d="M33.672 6.25366H26.216C25.4945 6.25366 25.0134 6.73469 25.0134 7.45623V9.62086V12.507C25.0134 13.2286 25.4945 13.7096 26.216 13.7096H33.1909C33.672 13.7096 34.153 14.1906 34.153 14.9122V15.6337C34.153 16.3553 33.672 16.5958 33.1909 16.8363H29.5832C25.0134 16.8363 21.6462 19.963 21.6462 24.2923V30.5456C21.6462 34.8749 24.5324 38.0016 29.1022 38.0016H38.7228C40.4064 38.0016 41.8495 36.799 41.8495 35.1154V14.9122C42.3305 9.38035 39.9253 6.25366 33.672 6.25366ZM34.634 28.6215V29.3431V29.5836C34.634 29.5836 34.634 29.5836 34.634 29.8241C34.3935 30.3051 33.9125 30.5456 33.4315 30.5456H31.2668C30.5453 30.5456 30.0642 30.0646 30.0642 29.3431V28.381V25.7353V24.7733C30.0642 24.0517 30.5453 23.5707 31.2668 23.5707H33.4315C34.153 23.5707 34.634 24.0517 34.634 24.7733V28.6215Z" fill="#20346C"/>
<path d="M192.652 31.9887C192.652 30.5456 192.652 28.862 192.652 27.4189C192.652 26.6974 192.652 26.4569 193.374 25.9759C195.779 24.5328 196.26 21.6466 194.817 19.482C193.133 17.3173 190.247 17.0768 188.082 18.7604C185.677 20.6845 186.158 24.2923 188.563 25.9759C189.285 26.4569 189.525 26.6974 189.285 27.4189C189.285 30.5456 189.285 33.6723 189.285 36.799C189.285 37.5206 189.285 37.7611 188.323 37.7611C181.107 36.5585 175.576 30.5456 175.094 23.3302C174.613 14.4312 181.829 6.25366 191.209 6.25366C198.905 6.25366 205.399 12.026 206.602 19.7225C207.804 28.381 202.032 36.318 193.374 37.5205C192.652 37.5205 192.652 37.5206 192.652 36.799C192.652 35.3559 192.652 33.6723 192.652 31.9887Z" fill="#00ADEE"/>
<path d="M253.503 21.1657C258.554 24.2924 258.072 31.0268 255.186 33.913C253.262 35.8371 251.098 36.7991 248.452 37.0397C244.363 37.5207 240.034 37.0397 235.945 37.2802C234.983 37.2802 235.224 36.7991 235.224 36.3181C235.224 27.6596 235.224 19.2416 235.224 10.5831C235.224 9.621 235.224 8.65894 235.224 7.69689C235.224 7.21586 235.224 6.97534 235.945 6.97534C239.793 6.97534 243.642 6.97534 247.49 6.97534C251.579 6.97534 254.946 9.38049 255.667 12.9882C256.389 15.8744 255.908 18.52 253.503 20.6847C253.743 20.9252 253.743 20.9252 253.503 21.1657ZM241.958 22.1278C241.958 25.0139 241.958 27.9001 241.958 30.7863C241.958 31.2673 241.958 31.7483 242.68 31.5078C244.363 31.5078 245.806 31.5078 247.49 31.5078C249.654 31.5078 250.857 29.8242 250.857 27.6596C250.857 25.7355 249.414 24.2924 247.49 24.2924C247.009 24.2924 246.287 24.2924 245.806 24.2924C245.325 24.2924 245.085 24.0519 245.085 23.5708C245.085 22.6088 245.085 21.8872 245.085 20.9252C245.085 20.2036 244.844 19.4821 245.085 19.0011C245.325 18.52 246.287 19.0011 247.009 18.7606H247.249C248.933 18.52 249.654 17.558 249.895 15.8744C249.895 14.1908 248.933 12.9882 247.249 12.7477C245.806 12.5072 244.363 12.7477 242.92 12.7477C242.199 12.7477 241.958 12.9882 241.958 13.7097C241.958 16.3554 241.958 19.2416 241.958 22.1278Z" fill="#283C89"/>
<path d="M374 16.5958C374 21.4061 374 26.4569 374 31.2672C374 33.6724 373.038 35.356 370.873 36.318C367.506 37.7611 363.898 37.7611 360.291 37.5206C356.924 37.2801 354.278 35.837 352.113 33.4318C350.43 31.2672 349.468 28.6216 348.987 25.9759C348.506 22.6087 348.746 19.482 349.708 16.3553C351.392 11.545 355.24 9.13988 360.291 8.17782C362.936 7.69679 365.582 7.93731 368.228 8.41834C368.949 8.41834 368.949 8.41834 368.949 7.6968C368.949 5.53217 368.949 3.36753 368.709 1.2029C368.709 0.481359 368.949 0.240845 369.671 0.240845C370.633 0.240845 371.835 0.240845 372.797 0.240845C373.76 0.240845 374 0.481359 374 1.44342C374 6.49422 374 11.545 374 16.5958ZM368.709 22.6087C368.709 20.2036 368.709 17.5579 368.709 15.1527C368.709 14.6717 368.468 14.1907 367.987 14.1907C365.823 13.4691 363.898 12.9881 361.734 13.2286C358.607 13.4691 356.202 15.1527 354.999 18.0389C354.037 20.6846 354.037 23.3302 354.278 25.9759C355.48 33.6724 362.455 34.1534 367.025 32.4698C367.987 31.9888 368.468 31.2672 368.468 30.0646C368.709 27.419 368.709 25.0138 368.709 22.6087Z" fill="#00ADEE"/>
<path d="M320.365 35.3562C318.681 36.3183 317.238 37.2803 315.314 37.5209C312.669 38.0019 310.263 37.7614 307.858 36.7993C304.972 35.5967 303.048 33.4321 302.807 30.3054C302.567 26.9382 304.01 24.2926 307.137 22.8495C309.542 21.6469 312.188 20.9254 314.833 19.9633C316.276 19.4823 317.479 19.0012 318.922 18.2797C320.365 17.5582 320.846 16.3556 320.606 15.153C320.365 14.191 319.403 13.4694 317.96 13.2289C315.555 12.7479 312.909 13.2289 310.504 13.7099C308.82 14.191 307.377 14.9125 305.694 15.3935C305.453 14.4315 305.694 13.7099 305.694 12.7479C305.934 9.86169 305.934 9.86169 308.82 9.14015C312.188 8.4186 315.795 7.93758 319.403 8.4186C324.213 9.14015 326.618 11.5453 326.378 16.3556C326.378 22.8495 326.378 29.1029 326.137 35.5967C326.137 36.0778 326.137 36.3183 326.137 36.7993C326.137 37.2803 325.897 37.5209 325.416 37.5209C323.732 37.5209 322.049 37.5209 320.365 37.5209C319.884 37.5209 319.643 37.2803 319.643 36.7993C320.125 36.0778 320.365 35.8373 320.365 35.3562ZM320.606 26.9382C320.606 25.7357 320.606 24.5331 320.606 23.571C320.606 22.8495 320.606 22.8495 319.884 23.09C318.681 23.571 317.238 24.0521 316.036 24.7736C314.112 25.4951 312.188 25.9762 310.504 27.1787C309.301 27.9003 308.58 29.3434 308.82 30.7865C309.061 31.989 310.023 32.9511 311.707 33.1916C314.593 33.6726 316.998 32.9511 319.643 31.7485C320.125 31.508 320.365 31.2675 320.365 30.7865C320.606 29.3434 320.606 28.1408 320.606 26.9382Z" fill="#00ADEE"/>
<path d="M215.019 28.1406C216.944 30.0647 219.108 31.2673 221.754 31.5078C222.475 31.5078 223.437 31.5078 224.159 31.2673C226.083 30.5457 226.324 28.3811 224.88 26.938C223.918 25.9759 222.716 25.4949 221.513 25.0139C219.83 24.2923 218.146 23.5708 216.703 22.6087C213.576 20.6846 211.893 18.2795 212.374 14.4312C212.855 11.064 214.779 8.41837 217.906 7.2158C222.716 5.29168 227.286 6.01323 231.615 9.13991C232.096 9.62094 232.336 9.86146 231.855 10.583C231.134 11.7856 230.412 13.2287 229.691 14.6717C229.45 15.1528 229.21 15.3933 228.729 14.9123C226.805 13.2287 224.88 12.5071 222.235 12.5071C221.513 12.5071 221.032 12.7476 220.551 12.9881C218.627 13.9502 218.627 15.8743 220.311 17.0769C221.513 18.039 222.956 18.52 224.159 19.001C226.083 19.7226 228.007 20.6846 229.45 21.8872C232.096 24.0518 233.058 26.6975 232.336 30.0647C231.615 33.4319 229.45 35.837 226.083 36.7991C220.792 38.2422 215.981 37.0396 211.893 33.4319C211.412 32.9509 211.412 32.7103 211.652 32.2293C213.095 31.0267 214.057 29.5837 215.019 28.1406Z" fill="#283C89"/>
<path d="M291.022 37.7612C286.934 37.7612 283.326 37.0397 280.68 34.1535C278.756 32.2294 277.794 29.8243 277.313 27.1786C276.592 23.5709 276.592 19.9632 277.794 16.3554C279.478 11.5452 282.845 8.89949 287.896 8.17795C292.225 7.4564 296.314 8.41846 300.403 9.38052C300.884 9.38052 301.124 9.62104 300.884 10.1021C300.643 11.5452 300.403 12.9882 300.162 14.4313C300.162 14.9124 299.922 15.1529 299.2 14.9124C296.554 13.9503 294.149 12.9882 291.263 12.7477C285.972 12.5072 282.845 15.1529 282.123 20.2037C281.883 22.3683 281.883 24.5329 282.364 26.6976C283.567 31.2673 286.934 33.1915 291.263 32.7104C293.668 32.4699 295.833 31.7484 297.997 30.7863C298.719 30.5458 298.959 30.3053 298.959 31.2673C299.2 32.4699 299.681 33.6725 300.162 34.6345C300.643 35.3561 300.403 35.5966 299.681 35.8371C297.997 36.3181 296.554 36.7992 294.871 37.0397C293.909 37.5207 292.225 37.7612 291.022 37.7612Z" fill="#00ADEE"/>
<path d="M350.911 9.13974C349.227 10.5828 348.025 11.7854 347.063 13.469C346.822 13.95 346.341 13.469 346.101 13.469C344.177 12.7475 342.012 12.2664 340.088 12.988C338.164 13.469 336.961 14.6716 336.721 16.8362C336.48 19.9629 336.721 22.8491 336.961 25.9758C336.961 29.5835 336.961 33.1912 337.442 36.5584C337.442 37.0394 337.442 37.2799 336.721 37.2799C335.037 37.2799 333.353 37.2799 331.67 37.2799C331.189 37.2799 330.948 37.0394 330.948 36.5584C330.948 29.5835 330.948 22.368 330.948 15.3931C330.948 12.2664 332.872 9.86129 335.999 8.89923C340.809 7.45614 345.86 7.93717 350.911 9.13974Z" fill="#00ADEE"/>
<path d="M267.211 22.1278C267.211 26.938 267.211 31.5078 267.211 36.3181C267.211 37.0397 266.971 37.2802 266.249 37.2802C264.565 37.2802 262.882 37.2802 261.198 37.2802C260.717 37.2802 260.477 37.2802 260.477 36.5586C260.477 26.938 260.477 17.3175 260.477 7.69689C260.477 6.97534 260.717 6.97534 261.198 6.97534C262.882 6.97534 264.806 6.97534 266.49 6.97534C267.211 6.97534 267.211 7.21586 267.211 7.9374C267.211 12.5072 267.211 17.3175 267.211 22.1278Z" fill="#283C89"/>
</svg>
